HIERARCHY
ROOT joint_Root
{
	OFFSET 0.0 0.0 0.0
	CHANNELS 6 Xposition Yposition Zposition Zrotation Xrotation Yrotation 
	JOINT Hips
	{
		OFFSET -0.726466 93.3139 -2.00062
		CHANNELS 6 Xposition Yposition Zposition Zrotation Xrotation Yrotation 
		JOINT Spine
		{
			OFFSET 15.7357 0.0 0.0
			CHANNELS 6 Xposition Yposition Zposition Zrotation Xrotation Yrotation 
			JOINT Chest
			{
				OFFSET 8.98455 -0.406207 0.0
				CHANNELS 6 Xposition Yposition Zposition Zrotation Xrotation Yrotation 
				JOINT Neck
				{
					OFFSET 16.3773 0.0 0.0
					CHANNELS 6 Xposition Yposition Zposition Zrotation Xrotation Yrotation 
					JOINT Head
					{
						OFFSET 6.45672 0.0 0.0
						CHANNELS 6 Xposition Yposition Zposition Zrotation Xrotation Yrotation 
						End Site
						{
							OFFSET 0.0 0.0 0.0
						}
					}
				}
				JOINT Shoulder_L
				{
					OFFSET 12.9942 -0.242716 4.98039
					CHANNELS 6 Xposition Yposition Zposition Zrotation Xrotation Yrotation 
					JOINT UpperArm_L
					{
						OFFSET 5.34809 0.0 0.0
						CHANNELS 6 Xposition Yposition Zposition Zrotation Xrotation Yrotation 
						JOINT LowerArm_L
						{
							OFFSET 24.3286 1.87007e-05 0.0
							CHANNELS 6 Xposition Yposition Zposition Zrotation Xrotation Yrotation 
							JOINT Hand_L
							{
								OFFSET 22.2916 0.0 0.0
								CHANNELS 6 Xposition Yposition Zposition Zrotation Xrotation Yrotation 
								End Site
								{
									OFFSET 0.0 0.0 0.0
								}
							}
						}
					}
				}
				JOINT Shoulder_R
				{
					OFFSET 12.9945 -0.242716 -4.98039
					CHANNELS 6 Xposition Yposition Zposition Zrotation Xrotation Yrotation 
					JOINT UpperArm_R
					{
						OFFSET -5.34813 0.0 0.0
						CHANNELS 6 Xposition Yposition Zposition Zrotation Xrotation Yrotation 
						JOINT LowerArm_R
						{
							OFFSET -24.3289 0.000322201 0.0
							CHANNELS 6 Xposition Yposition Zposition Zrotation Xrotation Yrotation 
							JOINT Hand_R
							{
								OFFSET -22.2915 -0.000108084 0.0
								CHANNELS 6 Xposition Yposition Zposition Zrotation Xrotation Yrotation 
								End Site
								{
									OFFSET 0.0 0.0 0.0
								}
							}
						}
					}
				}
			}
		}
		JOINT UpperLeg_L
		{
			OFFSET -2.19248 -6.46944 0.0
			CHANNELS 6 Xposition Yposition Zposition Zrotation Xrotation Yrotation 
			JOINT LowerLeg_L
			{
				OFFSET 39.0811 0.0 -1.23785e-05
				CHANNELS 6 Xposition Yposition Zposition Zrotation Xrotation Yrotation 
				JOINT Foot_L
				{
					OFFSET 40.9854 0.0 -1.26872e-05
					CHANNELS 6 Xposition Yposition Zposition Zrotation Xrotation Yrotation 
					JOINT Toes_L
					{
						OFFSET 11.7543 0.0 0.0
						CHANNELS 6 Xposition Yposition Zposition Zrotation Xrotation Yrotation 
						End Site
						{
							OFFSET 0.0 0.0 0.0
						}
					}
				}
			}
		}
		JOINT UpperLeg_R
		{
			OFFSET -2.19251 6.46944 0.0
			CHANNELS 6 Xposition Yposition Zposition Zrotation Xrotation Yrotation 
			JOINT LowerLeg_R
			{
				OFFSET -39.0811 -0.00228153 -0.0401928
				CHANNELS 6 Xposition Yposition Zposition Zrotation Xrotation Yrotation 
				JOINT Foot_R
				{
					OFFSET -40.9854 0.0 0.0
					CHANNELS 6 Xposition Yposition Zposition Zrotation Xrotation Yrotation 
					JOINT Toes_R
					{
						OFFSET -11.7543 0.0 0.0
						CHANNELS 6 Xposition Yposition Zposition Zrotation Xrotation Yrotation 
						End Site
						{
							OFFSET 0.0 0.0 0.0
						}
					}
				}
			}
		}
	}
}
MOTION
Frames:	4
Frame Time:	0.0333333
0.000000 0.000000 0.000000 0.000000 0.000000 -0.000000 110.717000 88.451500 156.796000 99.561100 -69.699500 7.479310 15.735700 0.000005 -0.000001 106.439000 83.716600 -106.499000 8.984550 -0.406207 -0.000000 4.295620 3.552470 -0.253199 16.377300 -0.000001 -0.000001 0.334805 -8.504670 1.053720 6.456720 -0.000001 -0.000000 1.362150 -15.615300 1.630120 12.994200 -0.242716 4.980390 -89.343100 -1.764830 -69.578800 5.348090 -0.000007 -0.000001 -78.834300 23.329100 2.214250 24.328600 0.000019 0.000005 2.392920 12.458200 -10.963800 22.291600 -0.000001 0.000005 2.825250 5.327450 -0.706415 12.994500 -0.242716 -4.980390 89.206200 2.976870 -75.062500 -5.348130 -0.000001 -0.000004 -52.150700 44.569200 -44.914100 -24.328900 0.000322 -0.000009 3.170440 3.060410 -46.062300 -22.291500 -0.000108 -0.000004 11.495700 5.486900 -6.014990 -2.192480 -6.469440 -0.000000 178.121000 -10.510200 -30.241600 39.081100 -0.000007 -0.000012 0.033893 -0.104248 18.010700 40.985400 -0.000006 -0.000013 -2.061840 2.593330 -57.955400 11.754300 -0.000000 0.000003 -0.007867 -0.086951 -20.117400 -2.192510 6.469440 -0.000001 -179.004000 2.656830 -169.948000 -39.081100 -0.002282 -0.040193 0.042635 -0.083025 25.344200 -40.985400 0.000008 0.000006 24.656900 17.601900 -72.412500 -11.754300 -0.000006 -0.000006 -0.068343 -0.357982 -31.389500
0.000000 0.000000 0.000000 0.000000 0.000000 -0.000000 107.034000 88.133400 159.565000 105.079000 -71.143600 12.885800 15.735700 0.000005 -0.000001 105.906000 83.758300 -106.754000 8.984550 -0.406207 -0.000000 4.271810 3.441660 -1.822340 16.377300 -0.000001 -0.000001 0.809887 -8.106820 1.298370 6.456720 -0.000001 -0.000000 1.662820 -15.172100 1.410940 12.994200 -0.242716 4.980390 -89.706000 -0.783576 -69.430300 5.348090 -0.000007 -0.000001 -75.381300 23.144600 -0.913635 24.328600 0.000019 0.000005 2.437600 11.082900 -12.487700 22.291600 -0.000001 0.000005 4.691810 5.355230 -1.530390 12.994500 -0.242716 -4.980390 88.924300 4.102680 -75.293500 -5.348130 -0.000001 -0.000004 -53.678500 44.291600 -41.384300 -24.328900 0.000322 -0.000009 3.024030 3.320810 -42.376800 -22.291500 -0.000108 -0.000004 11.557900 5.479020 -5.711450 -2.192480 -6.469440 -0.000000 178.428000 -5.005370 -30.704300 39.081100 -0.000007 -0.000012 -0.008631 0.021225 22.129000 40.985400 -0.000006 -0.000013 -2.804400 1.169670 -47.787700 11.754300 -0.000000 0.000003 -0.008611 -0.092957 -20.362700 -2.192510 6.469440 -0.000001 177.419000 3.135110 -169.274000 -39.081100 -0.002282 -0.040193 0.032773 -0.053325 28.926200 -40.985400 0.000008 0.000006 25.098100 20.267700 -70.753300 -11.754300 -0.000006 -0.000006 -0.116388 -0.483519 -36.841000
0.000000 0.000000 0.000000 0.000000 0.000000 -0.000000 102.842000 87.911000 162.311000 109.824000 -72.359600 19.066300 15.735700 0.000005 -0.000001 104.504000 83.479700 -106.030000 8.984550 -0.406207 -0.000000 4.911190 3.297650 -3.191250 16.377300 -0.000001 -0.000001 1.295570 -7.688140 1.549450 6.456720 -0.000001 -0.000000 2.167760 -14.812000 1.647270 12.994200 -0.242716 4.980390 -89.991800 -0.021748 -69.286600 5.348090 -0.000007 -0.000001 -71.932300 22.627300 -4.165890 24.328600 0.000019 0.000005 2.391510 9.610540 -14.046700 22.291600 -0.000001 0.000005 6.082810 5.388450 -2.562480 12.994500 -0.242716 -4.980390 88.610300 5.398810 -75.542100 -5.348130 -0.000001 -0.000004 -56.771400 43.595000 -35.904700 -24.328900 0.000322 -0.000009 3.211180 4.151290 -37.796000 -22.291500 -0.000108 -0.000004 11.778800 5.464040 -5.148920 -2.192480 -6.469440 -0.000000 178.250000 -1.749060 -29.689300 39.081100 -0.000007 -0.000012 -0.074183 0.134059 28.958700 40.985400 -0.000006 -0.000013 -3.239870 -4.200750 -49.391400 11.754300 -0.000000 0.000003 -0.003725 -0.048552 -18.551600 -2.192510 6.469440 -0.000001 174.704000 2.687490 -169.204000 -39.081100 -0.002282 -0.040193 0.021364 -0.025581 35.241900 -40.985400 0.000008 0.000006 22.872900 22.980600 -64.296300 -11.754300 -0.000006 -0.000006 -0.196582 -0.639396 -43.952500
0.000000 0.000000 0.000000 0.000000 0.000000 -0.000000 98.737000 87.783500 164.819000 111.283000 -72.954900 22.562300 15.735700 0.000005 -0.000001 102.269000 82.966600 -104.099000 8.984550 -0.406207 -0.000000 6.036760 3.008700 -3.817080 16.377300 -0.000001 -0.000001 1.146730 -7.493800 1.417330 6.456720 -0.000001 -0.000000 2.438190 -14.566400 1.876680 12.994200 -0.242716 4.980390 -90.035000 0.094293 -69.662600 5.348090 -0.000007 -0.000001 -69.123400 22.170900 -8.185770 24.328600 0.000019 0.000005 2.120540 7.688730 -15.471500 22.291600 -0.000001 0.000005 6.655120 5.415290 -3.440500 12.994500 -0.242716 -4.980390 88.556100 5.607490 -75.535300 -5.348130 -0.000001 -0.000004 -62.242900 41.335100 -29.254800 -24.328900 0.000322 -0.000009 3.535650 5.561740 -32.530600 -22.291500 -0.000108 -0.000004 12.156600 5.443160 -4.397780 -2.192480 -6.469440 -0.000000 177.575000 -2.138260 -27.502500 39.081100 -0.000007 -0.000012 -0.115334 0.161411 35.547600 40.985400 -0.000006 -0.000013 -3.105100 -3.401750 -56.148100 11.754300 -0.000000 0.000003 -0.000504 -0.008087 -16.905900 -2.192510 6.469440 -0.000001 173.311000 2.175630 -172.232000 -39.081100 -0.002282 -0.040193 0.002210 0.001036 45.460200 -40.985400 0.000008 0.000006 14.630600 24.921000 -52.473400 -11.754300 -0.000006 -0.000006 -0.177721 -0.606750 -42.423900
